<?xml version="1.0" standalone="no"?>
<!DOCTYPE svg PUBLIC "-//W3C//DTD SVG 20010904//EN"
 "http://www.w3.org/TR/2001/REC-SVG-20010904/DTD/svg10.dtd">
<svg version="1.0" xmlns="http://www.w3.org/2000/svg"
 width="1254.000000pt" height="1254.000000pt" viewBox="0 0 1254.000000 1254.000000"
 preserveAspectRatio="xMidYMid meet">

<g transform="translate(0.000000,1254.000000) scale(0.100000,-0.100000)"
fill="#000000" stroke="none">
<path d="M5007 9005 c-95 -24 -164 -64 -225 -130 -47 -50 -114 -164 -374 -631
-271 -487 -747 -1336 -1318 -2349 -147 -261 -545 -964 -736 -1300 -56 -99
-100 -182 -98 -184 2 -2 169 -4 371 -3 358 0 370 0 428 22 144 55 192 111 377
438 223 394 1549 2783 1668 3004 14 26 27 48 30 48 3 0 21 -30 39 -67 34 -71
350 -688 722 -1414 121 -234 219 -431 219 -437 0 -9 -206 -12 -792 -14 l-793
-3 -70 -34 c-113 -56 -153 -105 -308 -378 -75 -132 -137 -244 -137 -247 0 -3
543 -7 1208 -8 l1207 -3 48 -24 c69 -34 106 -83 198 -265 127 -248 202 -351
323 -442 128 -96 287 -159 436 -172 47 -4 612 -7 1255 -6 l1170 0 53 23 c64
29 124 94 146 158 21 62 23 437 3 486 -28 67 65 61 -1201 68 -1050 5 -1157 7
-1216 23 -143 38 -281 131 -363 244 -19 26 -303 583 -632 1237 -1171 2332
-1112 2221 -1219 2294 -102 70 -289 99 -419 66z"/>
<path d="M7035 8212 c-65 -23 -135 -72 -178 -125 -49 -59 -268 -450 -259 -459
5 -5 710 -7 1568 -6 l1559 3 58 27 c99 47 193 160 255 310 34 81 44 225 17
251 -15 16 -129 17 -1493 17 -1376 -1 -1480 -2 -1527 -18z"/>
<path d="M8664 7352 c-14 -9 -175 -218 -609 -791 -198 -260 -425 -558 -504
-662 -115 -152 -142 -193 -137 -212 11 -44 85 -146 135 -185 89 -70 141 -85
334 -90 114 -3 176 -1 195 7 15 7 57 51 93 99 37 48 233 304 435 569 203 264
457 597 565 740 109 142 242 317 298 390 56 72 101 134 101 137 0 9 -893 7
-906 -2z"/>
</g>
</svg>
